<svg width="700" height="280" viewBox="0 0 700 280" xmlns="http://www.w3.org/2000/svg">
  <rect width="700" height="280" fill="#ffffff" />
  <rect x="20" y="20" width="660" height="240" rx="6" fill="#ffffff" stroke="#e2e2e5" />

  <!-- header row -->
  <rect x="20" y="20" width="660" height="32" fill="#f4f4f5" />
  <text x="40" y="41" font-family="Arial, sans-serif" font-size="11" font-weight="700" fill="#111111">Video link</text>
  <text x="290" y="41" font-family="Arial, sans-serif" font-size="11" font-weight="700" fill="#111111">Type</text>
  <text x="450" y="41" font-family="Arial, sans-serif" font-size="11" font-weight="700" fill="#111111">Anchor points confirmed</text>

  <line x1="270" y1="20" x2="270" y2="260" stroke="#e2e2e5" />
  <line x1="430" y1="20" x2="430" y2="260" stroke="#e2e2e5" />

  <g font-family="Arial, sans-serif" font-size="10" fill="#4a4a4a">
    <!-- rows -->
    <g>
      <line x1="20" y1="72" x2="680" y2="72" stroke="#f0f0f2" />
      <text x="40" y="66" fill="#5b6cff">tiktok.com/@shreekrishnashr7/video/1</text>
      <text x="290" y="66">Full set</text>
      <circle cx="455" cy="62" r="6" fill="#a78bfa" />
    </g>
    <g>
      <line x1="20" y1="104" x2="680" y2="104" stroke="#f0f0f2" />
      <text x="40" y="98" fill="#5b6cff">tiktok.com/@shreekrishnashr7/video/2</text>
      <text x="290" y="98">Top only</text>
      <circle cx="455" cy="94" r="6" fill="#a78bfa" />
    </g>
    <g>
      <line x1="20" y1="136" x2="680" y2="136" stroke="#f0f0f2" />
      <text x="40" y="130" fill="#5b6cff">tiktok.com/@shreekrishnashr7/video/3</text>
      <text x="290" y="130">Color variety</text>
      <circle cx="455" cy="126" r="6" fill="#a78bfa" />
    </g>
    <g>
      <line x1="20" y1="168" x2="680" y2="168" stroke="#f0f0f2" />
      <text x="40" y="162" fill="#5b6cff">tiktok.com/@shreekrishnashr7/video/4</text>
      <text x="290" y="162">Multiple kurtis</text>
      <circle cx="455" cy="158" r="6" fill="#d8d8db" />
    </g>
    <g>
      <line x1="20" y1="200" x2="680" y2="200" stroke="#f0f0f2" />
      <text x="40" y="194" fill="#5b6cff">tiktok.com/@shreekrishnashr7/video/5</text>
      <text x="290" y="194">Full set</text>
      <circle cx="455" cy="190" r="6" fill="#a78bfa" />
    </g>
    <g>
      <text x="40" y="226" fill="#5b6cff">tiktok.com/@shreekrishnashr7/video/6</text>
      <text x="290" y="226">Top only</text>
      <circle cx="455" cy="222" r="6" fill="#a78bfa" />
    </g>
  </g>

  <text x="350" y="277" font-family="Arial, sans-serif" font-size="10" fill="#8a8a8e" text-anchor="middle">15–20 handpicked reference videos, grouped by type</text>
</svg>
